<?xml version="1.0" encoding="utf-8"?>
<!-- Generator: Adobe Illustrator 22.1.0, SVG Export Plug-In . SVG Version: 6.00 Build 0)  -->
<svg version="1.1" xmlns="http://www.w3.org/2000/svg" xmlns:xlink="http://www.w3.org/1999/xlink" x="0px" y="0px"
	 viewBox="0 0 16 16" style="enable-background:new 0 0 16 16;" xml:space="preserve">
<style type="text/css">
	.st0{display:none;}
	.st1{display:inline;opacity:0.14;}
	.st2{display:none;opacity:0.87;stroke:#000000;stroke-width:0.25;stroke-miterlimit:10;}
	.st3{stroke:#000000;stroke-width:0.75;stroke-miterlimit:10;}
	.st4{display:none;stroke:#000000;stroke-width:0.25;stroke-miterlimit:10;}
	.st5{stroke:#000000;stroke-width:0.25;stroke-miterlimit:10;}
</style>
<g id="Layer_2" class="st0">
	<path class="st1" d="M8,15.9c-4.4,0-8-3.6-8-8s3.6-8,8-8s8,3.6,8,8S12.4,15.9,8,15.9z M8,14.3c3.5,0,6.4-2.9,6.4-6.4
		S11.6,1.6,8,1.6S1.7,4.4,1.7,8S4.5,14.3,8,14.3z M8.8,7.6l2,2c0.3,0.3,0.3,0.8,0,1.1c-0.3,0.3-0.8,0.3-1.1,0L7.5,8.5
		C7.3,8.4,7.2,8.2,7.2,8V4.8C7.2,4.3,7.6,4,8,4c0.4,0,0.8,0.4,0.8,0.8V7.6z"/>
</g>
<g id="Layer_1">
	<path class="st2" d="M8.8,8.8c0.5,0.4,1.3,0.3,2-0.3l0.4,0.3l0.3-0.3l-0.4-0.3c0.6-0.8,0.6-1.6,0-2.1C10.5,5.6,10,5.7,9.3,6.2
		L9,6.4L8,5.5c0.3-0.3,0.7-0.3,1-0.2l0.5-0.6C8.9,4.4,8.2,4.5,7.5,5.1L7.2,4.8L6.9,5.1l0.4,0.3C6.8,6.2,6.8,6.9,7.3,7.4
		C7.8,7.8,8.4,7.7,9,7.3l0.2-0.2l1.1,0.9c-0.3,0.3-0.7,0.4-1,0.2L8.8,8.8z M8.7,6.7C8.3,6.9,8,7,7.8,6.8C7.6,6.6,7.5,6.2,7.7,5.9
		L8.7,6.7L8.7,6.7L8.7,6.7z M9.6,6.9c0.4-0.3,0.7-0.4,1-0.1c0.3,0.2,0.3,0.6,0,1.1L9.6,6.9L9.6,6.9z"/>
	<path class="st3" d="M8,13c-2.7,0-5-2.2-5-5s2.2-5,5-5s5,2.2,5,5S10.7,13,8,13z M8,13.7c3.1,0,5.7-2.5,5.7-5.7S11.1,2.3,8,2.3
		S2.3,4.9,2.3,8S4.9,13.7,8,13.7z"/>
	<path class="st4" d="M8,11.1c-1.7,0-3.2-1.4-3.2-3.2S6.3,4.8,8,4.8s3.2,1.4,3.2,3.2S9.8,11.1,8,11.1z M8,11.4
		c1.9,0,3.4-1.5,3.4-3.4S9.9,4.5,8,4.5S4.6,6.1,4.6,8S6.1,11.4,8,11.4z"/>
	<path class="st5" d="M2.4,11.9c0.1-0.3,0-0.5-0.3-0.6c-0.3-0.1-0.5,0-0.6,0.3l0,0c-0.1,0.4-0.2,0.7-0.2,1c0,0.3,0.1,0.7,0.3,0.9
		c0.4,0.4,1,0.4,1.4,0.3c0.5-0.1,1.1-0.4,1.7-0.7C6,12.2,7.5,11,9,9.6C9,9.5,9.1,9.4,9.2,9.3l0,1.6c0,0.3,0.2,0.5,0.5,0.5
		c0.3,0,0.5-0.2,0.5-0.5l0-2.8c0-0.3-0.2-0.5-0.5-0.5c0,0,0,0,0,0l-2.8,0c-0.3,0-0.5,0.2-0.5,0.5c0,0.3,0.2,0.5,0.5,0.5l1.6,0
		L8.2,8.9c-1.4,1.4-2.9,2.6-4.1,3.3c-0.6,0.3-1.1,0.6-1.4,0.6c-0.4,0.1-0.5,0-0.5,0c0,0,0,0,0-0.2C2.2,12.4,2.2,12.2,2.4,11.9
		L2.4,11.9z"/>
	<path class="st5" d="M12,1.7c-0.3,0.1-0.4,0.3-0.4,0.6s0.3,0.4,0.6,0.4c0.3-0.1,0.5-0.1,0.7-0.1c0.2,0,0.2,0.1,0.2,0.1
		c0,0,0,0.1,0,0.2c0,0.2-0.1,0.4-0.3,0.7c-0.3,0.6-1,1.4-1.8,2.2c-0.2,0.2-0.2,0.5,0,0.7c0.2,0.2,0.5,0.2,0.7,0
		c0.9-0.9,1.5-1.7,2-2.4c0.2-0.4,0.4-0.7,0.4-1c0.1-0.3,0-0.7-0.2-1c-0.2-0.3-0.5-0.4-0.9-0.5C12.8,1.6,12.4,1.6,12,1.7z"/>
</g>
</svg>
