<?xml version="1.0" encoding="utf-8"?>
<!-- Generator: Adobe Illustrator 22.1.0, SVG Export Plug-In . SVG Version: 6.00 Build 0)  -->
<svg version="1.1" id="Layer_1" xmlns="http://www.w3.org/2000/svg" xmlns:xlink="http://www.w3.org/1999/xlink" x="0px" y="0px"
	 viewBox="0 0 24 24" style="enable-background:new 0 0 24 24;" xml:space="preserve">
<path d="M19.7,10.2c0,0.5,0.4,0.9,0.9,0.9c0.5,0,0.9-0.4,0.9-0.9V3.1c0-0.5-0.4-0.9-0.9-0.9h-7.1c-0.5,0-0.9,0.4-0.9,0.9
	S13,4,13.5,4h4.9l-4.9,4.9l-0.5,0.5c-1,1,0.1,2.3,1.1,1.3l5.6-5.6V10.2z"/>
<path d="M4.2,13.6c0-0.5-0.4-0.9-0.9-0.9s-0.9,0.4-0.9,0.9v7.1c0,0.5,0.4,0.9,0.9,0.9h7.1c0.5,0,0.9-0.4,0.9-0.9
	c0-0.5-0.4-0.9-0.9-0.9H5.4l4.9-4.9l0.5-0.5c1-1-0.1-2.3-1.1-1.3l-5.6,5.6V13.6z"/>
</svg>
