<?xml version="1.0" encoding="utf-8"?>
<!-- Generator: Adobe Illustrator 22.1.0, SVG Export Plug-In . SVG Version: 6.00 Build 0)  -->
<svg version="1.1" id="Layer_1" xmlns="http://www.w3.org/2000/svg" xmlns:xlink="http://www.w3.org/1999/xlink" x="0px" y="0px"
	 viewBox="0 0 24 24" style="enable-background:new 0 0 24 24;" xml:space="preserve">
<style type="text/css">
	.st0{fill:none;stroke:#000000;stroke-width:2;stroke-linecap:round;stroke-linejoin:round;}
</style>
<path class="st0" d="M12,8c-1.7,0-3,0.9-3,2c0,1.1,1.3,2,3,2s3,0.9,3,2s-1.3,2-3,2 M12,8c1.1,0,2.1,0.4,2.6,1 M12,8V7 M12,8v8
	 M12,16v1 M12,16c-1.1,0-2.1-0.4-2.6-1 M21,12c0,5-4,9-9,9c-5,0-9-4-9-9c0-5,4-9,9-9C17,3,21,7,21,12z"/>
</svg>
