<?xml version="1.0" encoding="utf-8"?>
<!-- Generator: Adobe Illustrator 22.1.0, SVG Export Plug-In . SVG Version: 6.00 Build 0)  -->
<svg version="1.1" id="Layer_1" xmlns="http://www.w3.org/2000/svg" xmlns:xlink="http://www.w3.org/1999/xlink" x="0px" y="0px"
	 viewBox="0 0 24 24" style="enable-background:new 0 0 24 24;" xml:space="preserve">
<style type="text/css">
	.st0{fill:none;stroke:#000000;stroke-width:2;stroke-linecap:round;stroke-linejoin:round;}
</style>
<path class="st0" d="M9,9.3c-0.9,1-0.9,2.4-0.1,3.1C9.7,13.2,11.1,13,12,12s2.3-1.2,3.1-0.4c0.8,0.7,0.8,2.1-0.1,3.1 M9,9.3
	c0.6-0.6,1.4-1,2.1-0.9 M9,9.3L8.3,8.7 M9,9.3l5.9,5.4 M15,14.7l0.7,0.7 M15,14.7c-0.6,0.6-1.4,1-2.1,0.9 M16.8,6.7
	c3.7,3.3,4.6,8.4,1.9,11.3s-7.8,2.6-11.5-0.7S2.7,8.9,5.3,6S13.1,3.3,16.8,6.7z"/>
<path d="M5.5,21c0,0.3,0.2,0.5,0.5,0.5c0.3,0,0.5-0.2,0.5-0.5v-2c0-0.3-0.2-0.5-0.5-0.5l-2.2,0c-0.3,0-0.5,0.2-0.5,0.5
	s0.2,0.5,0.5,0.5l0.9,0c-1,0.9-1.3,1.4-1.5,1.5c0,0-0.1,0.1-0.2,0.2c-0.2,0.2-0.2,0.2-0.3,0.2c0,0,0,0,0,0c-0.1-0.1-0.1-0.3-0.1-0.9
	c0-0.3,0-0.5-0.1-0.6c-0.1-0.2-0.4-0.2-0.6-0.1c-0.4,0.1-0.4,0.5-0.4,0.8c0,0.7-0.1,1.8,0.5,2c0.5,0.2,0.8,0,1.3-0.3
	c0.2-0.2,0.4-0.3,0.4-0.4c0.4-0.4,0.9-1,1.7-1.8C5.5,21.9,5.5,20.8,5.5,21z"/>
<path d="M18.7,2.7c0-0.3-0.2-0.5-0.5-0.5s-0.5,0.2-0.5,0.5l0,2c0,0.3,0.2,0.5,0.5,0.5l2.2,0c0.3,0,0.5-0.2,0.5-0.5s-0.2-0.5-0.5-0.5
	l-0.9,0c0.9-1,1.3-1.4,1.5-1.5c0,0,0.1-0.1,0.2-0.2c0.2-0.2,0.2-0.2,0.3-0.2c0,0,0,0,0,0c0.1,0.1,0.1,0.3,0.1,0.9
	c0,0.3,0,0.5,0.1,0.6c0.1,0.2,0.4,0.2,0.6,0.1c0.4-0.1,0.4-0.6,0.4-0.8c0-0.7,0-1.8-0.5-2c-0.5-0.2-0.8,0-1.3,0.3
	c-0.2,0.2-0.4,0.3-0.4,0.4c-0.4,0.4-0.9,1-1.7,1.8C18.6,1.9,18.7,3,18.7,2.7z"/>
</svg>
